<svg xmlns="http://www.w3.org/2000/svg" width="20" height="21" fill="none" viewBox="0 0 20 21"><path stroke="#000" stroke-linecap="round" stroke-linejoin="round" d="M19 14.4436V6.47466C18.9996 6.1253 18.9071 5.78217 18.7315 5.4797C18.556 5.17723 18.3037 4.92606 18 4.75138L11 0.766909C10.696 0.592054 10.3511 0.5 10 0.5C9.64893 0.5 9.30404 0.592054 9 0.766909L2 4.75138C1.69626 4.92606 1.44398 5.17723 1.26846 5.4797C1.09294 5.78217 1.00036 6.1253 1 6.47466V14.4436C1.00036 14.793 1.09294 15.1361 1.26846 15.4386C1.44398 15.741 1.69626 15.9922 2 16.1669L9 20.1514C9.30404 20.3262 9.64893 20.4183 10 20.4183C10.3511 20.4183 10.696 20.3262 11 20.1514L18 16.1669C18.3037 15.9922 18.556 15.741 18.7315 15.4386C18.9071 15.1361 18.9996 14.793 19 14.4436Z"/><path stroke="#000" stroke-linecap="round" stroke-linejoin="round" d="M1.26953 5.43872L9.99953 10.4691L18.7295 5.43872"/><path stroke="#000" stroke-linecap="round" stroke-linejoin="round" d="M10 20.5001V10.4592"/></svg>