<svg xmlns="http://www.w3.org/2000/svg" width="13" height="13" fill="none" viewBox="0 0 13 13"><path fill="#000" d="M7.3442 8.65544C6.42604 9.30822 5.29615 9.59225 4.17845 9.45123C3.06074 9.31021 2.03681 8.75443 1.30957 7.89404C0.58233 7.03365 0.204864 5.93145 0.251981 4.80587C0.299098 3.68029 0.767358 2.61349 1.56396 1.81689C2.36056 1.02029 3.42736 0.552028 4.55294 0.504911C5.67852 0.457794 6.78072 0.835259 7.64111 1.5625C8.5015 2.28974 9.05728 3.31367 9.1983 4.43138C9.33932 5.54908 9.05529 6.67897 8.4025 7.59713L12.0097 11.2034C12.0833 11.2719 12.1423 11.3546 12.1832 11.4464C12.2241 11.5383 12.2462 11.6374 12.2479 11.738C12.2497 11.8385 12.2312 11.9384 12.1935 12.0316C12.1559 12.1249 12.0998 12.2096 12.0287 12.2807C11.9576 12.3518 11.8729 12.4078 11.7797 12.4455C11.6864 12.4831 11.5866 12.5016 11.486 12.4999C11.3855 12.4981 11.2863 12.4761 11.1945 12.4352C11.1026 12.3942 11.02 12.3352 10.9514 12.2617L7.3442 8.65544ZM7.73657 4.99331C7.73657 4.19893 7.42101 3.43709 6.8593 2.87538C6.29759 2.31367 5.53575 1.99811 4.74138 1.99811C3.947 1.99811 3.18516 2.31367 2.62345 2.87538C2.06174 3.43709 1.74618 4.19893 1.74618 4.99331C1.74618 5.78768 2.06174 6.54952 2.62345 7.11123C3.18516 7.67294 3.947 7.9885 4.74138 7.9885C5.53575 7.9885 6.29759 7.67294 6.8593 7.11123C7.42101 6.54952 7.73657 5.78768 7.73657 4.99331Z"/></svg>