<svg xmlns="http://www.w3.org/2000/svg" width="22" height="21" fill="none" viewBox="0 0 22 21"><path fill="#000" d="M3.5871 15.0922C3.72613 15.2317 3.83267 15.4003 3.89912 15.5857C3.96557 15.7712 3.99029 15.969 3.97153 16.1651C3.87739 17.0727 3.69891 17.9695 3.43842 18.844C5.30698 18.4114 6.44821 17.9104 6.96658 17.6479C7.2606 17.499 7.5992 17.4637 7.9176 17.5488C8.83037 17.7921 9.77112 17.9146 10.7158 17.9131C16.0683 17.9131 20.092 14.1532 20.092 9.87629C20.092 5.6007 16.0683 1.83947 10.7158 1.83947C5.36324 1.83947 1.33947 5.6007 1.33947 9.87629C1.33947 11.8426 2.16592 13.667 3.5871 15.0922ZM2.92674 20.3228C2.60938 20.3857 2.29099 20.4433 1.9717 20.4956C1.70381 20.5385 1.50021 20.2599 1.60602 20.0107C1.72496 19.7302 1.83397 19.4456 1.93285 19.1575L1.93687 19.1441C2.26906 18.1797 2.53963 17.0706 2.63876 16.0378C0.995226 14.3903 0 12.2338 0 9.87629C0 4.6979 4.79798 0.5 10.7158 0.5C16.6335 0.5 21.4315 4.6979 21.4315 9.87629C21.4315 15.0547 16.6335 19.2526 10.7158 19.2526C9.65443 19.254 8.5975 19.1162 7.57202 18.8427C6.8755 19.195 5.37663 19.8366 2.92674 20.3228Z"/></svg>