<svg xmlns="http://www.w3.org/2000/svg" width="21" height="21" fill="none" viewBox="0 0 21 21"><path fill="#212121" d="M3.81897 0.5H0.361333C0.282587 0.5 0.21875 0.563837 0.21875 0.642583V4.10022C0.21875 4.17896 0.282587 4.2428 0.361333 4.2428H3.81897C3.89771 4.2428 3.96155 4.17896 3.96155 4.10022V0.642583C3.96155 0.563837 3.89771 0.5 3.81897 0.5Z"/><path fill="#212121" d="M11.9279 0.5H8.47022C8.39147 0.5 8.32764 0.563837 8.32764 0.642583V4.10022C8.32764 4.17896 8.39147 4.2428 8.47022 4.2428H11.9279C12.0066 4.2428 12.0704 4.17896 12.0704 4.10022V0.642583C12.0704 0.563837 12.0066 0.5 11.9279 0.5Z"/><path fill="#212121" d="M20.0377 0.5H16.5801C16.5013 0.5 16.4375 0.563837 16.4375 0.642583V4.10022C16.4375 4.17896 16.5013 4.2428 16.5801 4.2428H20.0377C20.1165 4.2428 20.1803 4.17896 20.1803 4.10022V0.642583C20.1803 0.563837 20.1165 0.5 20.0377 0.5Z"/><path fill="#212121" d="M3.82092 8.92041H0.363286C0.28454 8.92041 0.220703 8.98425 0.220703 9.06299V12.5206C0.220703 12.5994 0.28454 12.6632 0.363286 12.6632H3.82092C3.89967 12.6632 3.9635 12.5994 3.9635 12.5206V9.06299C3.9635 8.98425 3.89967 8.92041 3.82092 8.92041Z"/><path fill="#212121" d="M11.9288 8.92041H8.4712C8.39245 8.92041 8.32861 8.98425 8.32861 9.06299V12.5206C8.32861 12.5994 8.39245 12.6632 8.4712 12.6632H11.9288C12.0076 12.6632 12.0714 12.5994 12.0714 12.5206V9.06299C12.0714 8.98425 12.0076 8.92041 11.9288 8.92041Z"/><path fill="#212121" d="M20.0377 8.92041H16.5801C16.5013 8.92041 16.4375 8.98425 16.4375 9.06299V12.5206C16.4375 12.5994 16.5013 12.6632 16.5801 12.6632H20.0377C20.1165 12.6632 20.1803 12.5994 20.1803 12.5206V9.06299C20.1803 8.98425 20.1165 8.92041 20.0377 8.92041Z"/><path fill="#212121" d="M3.82092 16.7571H0.363286C0.28454 16.7571 0.220703 16.8209 0.220703 16.8997V20.3573C0.220703 20.436 0.28454 20.4999 0.363286 20.4999H3.82092C3.89967 20.4999 3.9635 20.436 3.9635 20.3573V16.8997C3.9635 16.8209 3.89967 16.7571 3.82092 16.7571Z"/><path fill="#212121" d="M11.9288 16.7571H8.4712C8.39245 16.7571 8.32861 16.8209 8.32861 16.8997V20.3573C8.32861 20.436 8.39245 20.4999 8.4712 20.4999H11.9288C12.0076 20.4999 12.0714 20.436 12.0714 20.3573V16.8997C12.0714 16.8209 12.0076 16.7571 11.9288 16.7571Z"/><path fill="#212121" d="M20.0377 16.7571H16.5801C16.5013 16.7571 16.4375 16.8209 16.4375 16.8997V20.3573C16.4375 20.436 16.5013 20.4999 16.5801 20.4999H20.0377C20.1165 20.4999 20.1803 20.436 20.1803 20.3573V16.8997C20.1803 16.8209 20.1165 16.7571 20.0377 16.7571Z"/></svg>