<svg xmlns="http://www.w3.org/2000/svg" width="21" height="19" fill="none" viewBox="0 0 21 19"><path fill="#000" d="M16.8313 10.6519C16.9227 10.7477 16.9724 10.876 16.9693 11.0084C16.9662 11.1409 16.9106 11.2667 16.8148 11.3582L13.1512 14.8552C13.0583 14.944 12.9347 14.9935 12.8063 14.9935C12.6778 14.9935 12.5543 14.944 12.4613 14.8553L10.6295 13.1068C10.5816 13.0616 10.5432 13.0073 10.5164 12.9472C10.4896 12.8871 10.4749 12.8223 10.4732 12.7565C10.4715 12.6907 10.4828 12.6253 10.5065 12.5639C10.5302 12.5025 10.5658 12.4463 10.6112 12.3987C10.6567 12.3511 10.7111 12.313 10.7713 12.2864C10.8315 12.2599 10.8964 12.2456 10.9622 12.2442C11.028 12.2428 11.0934 12.2545 11.1547 12.2785C11.216 12.3024 11.2719 12.3383 11.3193 12.384L12.8062 13.8033L16.1249 10.6354C16.2207 10.544 16.349 10.4943 16.4815 10.4974C16.6139 10.5005 16.7397 10.556 16.8312 10.6519H16.8313ZM20.2168 12.4956C20.2168 13.7801 19.8359 15.0358 19.1222 16.1038C18.4086 17.1718 17.3943 18.0043 16.2075 18.4958C15.0208 18.9874 13.7149 19.116 12.4551 18.8654C11.1953 18.6148 10.0381 17.9963 9.12977 17.088C8.22148 16.1797 7.60293 15.0225 7.35233 13.7626C7.10174 12.5028 7.23035 11.1969 7.72191 10.0102C8.21348 8.82347 9.04591 7.80915 10.1139 7.09552C11.182 6.38188 12.4376 6.00098 13.7221 6.00098C15.444 6.00293 17.0948 6.6878 18.3124 7.90536C19.5299 9.12291 20.2148 10.7737 20.2168 12.4956ZM19.2176 12.4956C19.2176 11.4087 18.8953 10.3462 18.2914 9.44248C17.6876 8.53876 16.8293 7.8344 15.8252 7.41846C14.821 7.00253 13.7161 6.8937 12.65 7.10574C11.584 7.31778 10.6048 7.84117 9.83629 8.60972C9.06774 9.37827 8.54435 10.3575 8.33231 11.4235C8.12026 12.4895 8.22909 13.5944 8.64503 14.5986C9.06096 15.6028 9.76533 16.461 10.669 17.0649C11.5728 17.6687 12.6353 17.991 13.7221 17.991C15.1791 17.9894 16.5759 17.4099 17.6062 16.3796C18.6364 15.3494 19.2159 13.9526 19.2176 12.4956Z"/><path stroke="#000" stroke-linecap="round" stroke-linejoin="round" d="M2.83496 2.95422L3.56609 3.68535L4.78464 2.4668"/><path stroke="#000" stroke-linecap="round" stroke-linejoin="round" d="M2.83496 5.87853L3.56609 6.60966L4.78464 5.39111"/><path stroke="#000" stroke-linecap="round" stroke-linejoin="round" d="M2.83496 8.80285L3.56609 9.53398L4.78464 8.31543"/><path stroke="#000" stroke-linecap="round" stroke-linejoin="round" d="M6.49023 3.19751H10.877"/><path stroke="#000" stroke-linecap="round" stroke-linejoin="round" d="M6.49023 6.12183H10.877"/><path stroke="#000" stroke-linecap="round" stroke-linejoin="round" d="M6.49023 9.04614H8.68362"/><path fill="#000" fill-rule="evenodd" d="M2.2168 1.00977H11.4953C12.0476 1.00977 12.4953 1.45748 12.4953 2.00977V6.66803C12.8197 6.60007 13.1538 6.55851 13.4953 6.5457V2.00977C13.4953 0.905196 12.5999 0.00976562 11.4953 0.00976562H2.2168C1.11223 0.00976562 0.216797 0.905198 0.216797 2.00977V14.4928C0.216797 15.5974 1.11223 16.4928 2.21679 16.4928H9.30921C9.03185 16.1868 8.78587 15.8518 8.57637 15.4928H2.21679C1.66451 15.4928 1.2168 15.0451 1.2168 14.4928V2.00977C1.2168 1.45748 1.66451 1.00977 2.2168 1.00977Z" clip-rule="evenodd"/></svg>