<svg width="20" height="22" viewBox="0 0 20 22" fill="none" xmlns="http://www.w3.org/2000/svg">
<path d="M7.72916 1.7489C7.87857 1.37961 8.13486 1.06336 8.46518 0.840674C8.7955 0.61799 9.18479 0.499023 9.58316 0.499023C9.98153 0.499023 10.3708 0.61799 10.7011 0.840674C11.0315 1.06336 11.2877 1.37961 11.4372 1.7489C12.9159 2.15558 14.2203 3.03646 15.1499 4.25624C16.0796 5.47601 16.5831 6.96724 16.5832 8.5009V13.1979L18.4152 15.9459C18.5156 16.0965 18.5733 16.2716 18.5821 16.4524C18.5909 16.6332 18.5504 16.813 18.465 16.9727C18.3796 17.1323 18.2525 17.2657 18.0972 17.3588C17.9419 17.4518 17.7642 17.5009 17.5832 17.5009H13.0482C12.9278 18.334 12.5112 19.0958 11.8749 19.6468C11.2385 20.1978 10.4249 20.5011 9.58316 20.5011C8.7414 20.5011 7.92782 20.1978 7.29146 19.6468C6.6551 19.0958 6.23856 18.334 6.11816 17.5009H1.58316C1.40211 17.5009 1.22446 17.4518 1.06915 17.3588C0.913837 17.2657 0.786693 17.1323 0.701284 16.9727C0.615874 16.813 0.575402 16.6332 0.584186 16.4524C0.592969 16.2716 0.650679 16.0965 0.751158 15.9459L2.58316 13.1979V8.5009C2.58316 5.2769 4.76316 2.5609 7.72916 1.7489ZM8.16916 17.5009C8.27244 17.7935 8.46394 18.047 8.71728 18.2262C8.97062 18.4055 9.27332 18.5017 9.58366 18.5017C9.894 18.5017 10.1967 18.4055 10.45 18.2262C10.7034 18.047 10.8949 17.7935 10.9982 17.5009H8.16816H8.16916ZM9.58316 3.5009C8.25708 3.5009 6.98531 4.02768 6.04762 4.96537C5.10994 5.90305 4.58316 7.17482 4.58316 8.5009V13.5009C4.5832 13.6984 4.52474 13.8916 4.41516 14.0559L3.45216 15.5009H15.7132L14.7502 14.0559C14.6409 13.8914 14.5828 13.6983 14.5832 13.5009V8.5009C14.5832 7.17482 14.0564 5.90305 13.1187 4.96537C12.181 4.02768 10.9092 3.5009 9.58316 3.5009Z" fill="black" stroke="#EFEFEF"/>
</svg>
