<svg width="25" height="25" viewBox="0 0 25 25" fill="none" xmlns="http://www.w3.org/2000/svg">
<g clip-path="url(#clip0_1_4564)">
<path d="M12.5 22.5C6.977 22.5 2.5 18.023 2.5 12.5C2.5 6.977 6.977 2.5 12.5 2.5C18.023 2.5 22.5 6.977 22.5 12.5C22.5 18.023 18.023 22.5 12.5 22.5ZM12.5 20.5C14.6217 20.5 16.6566 19.6571 18.1569 18.1569C19.6571 16.6566 20.5 14.6217 20.5 12.5C20.5 10.3783 19.6571 8.34344 18.1569 6.84315C16.6566 5.34285 14.6217 4.5 12.5 4.5C10.3783 4.5 8.34344 5.34285 6.84315 6.84315C5.34285 8.34344 4.5 10.3783 4.5 12.5C4.5 14.6217 5.34285 16.6566 6.84315 18.1569C8.34344 19.6571 10.3783 20.5 12.5 20.5ZM13.834 12.5C14.2318 12.5 14.6134 12.342 14.8947 12.0607C15.176 11.7794 15.334 11.3978 15.334 11C15.334 10.6022 15.176 10.2206 14.8947 9.93934C14.6134 9.65804 14.2318 9.5 13.834 9.5H11V12.5H13.834ZM13.834 7.5C14.7623 7.5 15.6525 7.86875 16.3089 8.52513C16.9653 9.1815 17.334 10.0717 17.334 11C17.334 11.9283 16.9653 12.8185 16.3089 13.4749C15.6525 14.1313 14.7623 14.5 13.834 14.5H11V17.5H9V7.5H13.834Z" fill="#09121F"/>
</g>
<defs>
<clipPath id="clip0_1_4564">
<rect width="24" height="24" fill="white" transform="translate(0.5 0.5)"/>
</clipPath>
</defs>
</svg>
