<svg width="20" height="20" viewBox="0 0 20 20" fill="none" xmlns="http://www.w3.org/2000/svg">
<g clip-path="url(#clip0_101_168)">
<path d="M15.8337 16.6666H4.16699V17.4999C4.16699 17.7209 4.07919 17.9329 3.92291 18.0892C3.76663 18.2455 3.55467 18.3333 3.33366 18.3333H2.50033C2.27931 18.3333 2.06735 18.2455 1.91107 18.0892C1.75479 17.9329 1.66699 17.7209 1.66699 17.4999V9.16659L3.73366 4.34325C3.86226 4.04325 4.07612 3.78762 4.3487 3.60807C4.62129 3.42852 4.94059 3.33296 5.26699 3.33325H14.7337C15.0598 3.33329 15.3787 3.429 15.651 3.60853C15.9232 3.78806 16.1368 4.04351 16.2653 4.34325L18.3337 9.16659V17.4999C18.3337 17.7209 18.2459 17.9329 18.0896 18.0892C17.9333 18.2455 17.7213 18.3333 17.5003 18.3333H16.667C16.446 18.3333 16.234 18.2455 16.0777 18.0892C15.9215 17.9329 15.8337 17.7209 15.8337 17.4999V16.6666ZM16.667 10.8333H3.33366V14.9999H16.667V10.8333ZM3.48033 9.16659H16.5203L14.7345 4.99992H5.26699L3.48116 9.16659H3.48033ZM5.41699 14.1666C5.08547 14.1666 4.76753 14.0349 4.53311 13.8005C4.29869 13.566 4.16699 13.2481 4.16699 12.9166C4.16699 12.5851 4.29869 12.2671 4.53311 12.0327C4.76753 11.7983 5.08547 11.6666 5.41699 11.6666C5.74851 11.6666 6.06646 11.7983 6.30088 12.0327C6.5353 12.2671 6.66699 12.5851 6.66699 12.9166C6.66699 13.2481 6.5353 13.566 6.30088 13.8005C6.06646 14.0349 5.74851 14.1666 5.41699 14.1666ZM14.5837 14.1666C14.2521 14.1666 13.9342 14.0349 13.6998 13.8005C13.4654 13.566 13.3337 13.2481 13.3337 12.9166C13.3337 12.5851 13.4654 12.2671 13.6998 12.0327C13.9342 11.7983 14.2521 11.6666 14.5837 11.6666C14.9152 11.6666 15.2331 11.7983 15.4675 12.0327C15.702 12.2671 15.8337 12.5851 15.8337 12.9166C15.8337 13.2481 15.702 13.566 15.4675 13.8005C15.2331 14.0349 14.9152 14.1666 14.5837 14.1666Z" fill="#3098FF"/>
</g>
<defs>
<clipPath id="clip0_101_168">
<rect width="20" height="20" fill="white"/>
</clipPath>
</defs>
</svg>
