<svg xmlns="http://www.w3.org/2000/svg" width="20" height="21" fill="none" viewBox="0 0 20 21"><path fill="#212121" d="M18.0087 19.2159C18.0087 19.3722 18.0348 19.0596 18.0087 19.2159C17.9827 19.3461 18.0869 19.0856 18.0087 19.2159C18.1129 19.0596 18.0608 19.1377 18.0348 19.1638C17.9827 19.1898 17.9045 19.2419 18.0608 19.1377C17.9566 19.1898 18.1129 19.1117 18.1129 19.1117C18.0869 19.1117 18.0869 19.1117 18.0608 19.1377C17.9827 19.1638 18.0087 19.1638 18.1129 19.1377C18.0869 19.1377 18.0869 19.1377 18.0608 19.1377C18.0348 19.1377 18.0087 19.1377 18.0087 19.1377H17.644H16.1589H11.1566H5.63316H2.22011C2.14195 19.1377 2.06378 19.1377 2.01167 19.1377C1.85535 19.1377 2.16799 19.1638 2.01167 19.1377C1.85535 19.1117 2.14194 19.1898 2.01167 19.1377C1.8814 19.0856 2.11589 19.2419 2.01167 19.1377C2.11589 19.268 2.06379 19.1898 2.03773 19.1638C2.01168 19.1117 2.01167 19.1377 2.06378 19.2419C2.06378 19.2159 2.03773 19.1898 2.03773 19.1638C2.03773 19.1898 2.03773 19.2419 2.03773 19.268C2.03773 19.2419 2.03773 19.2159 2.03773 19.1898C2.03773 19.1638 2.03773 19.1117 2.03773 19.0856C2.03773 19.0335 2.03773 18.9553 2.03773 18.9032C2.03773 18.7209 2.03773 18.5645 2.03773 18.3822C2.03773 18.0435 2.01168 17.7308 2.03773 17.3921C2.03773 17.2358 2.03773 17.0795 2.06378 16.8971C2.06378 16.8189 2.08984 16.7147 2.08984 16.6366C2.08984 16.5844 2.11589 16.5584 2.11589 16.5063C2.11589 16.5323 2.11589 16.5584 2.11589 16.6105C2.11589 16.5844 2.11589 16.5584 2.11589 16.5323C2.14195 16.376 2.16801 16.2197 2.22011 16.0634C2.24617 15.9852 2.27221 15.907 2.27221 15.8549C2.27221 15.8289 2.29827 15.7768 2.32432 15.7507C2.32432 15.7247 2.35038 15.6986 2.35038 15.6726C2.29828 15.7768 2.29827 15.8028 2.32432 15.7247C2.37643 15.5944 2.45459 15.4641 2.53275 15.3599C2.58485 15.3078 2.63697 15.2817 2.5067 15.386C2.53275 15.3599 2.5588 15.3339 2.58486 15.3078C2.66302 15.2296 2.74118 15.1515 2.79328 15.0733C2.87145 14.9952 2.92357 14.9431 3.00173 14.8909C3.02778 14.8649 3.05383 14.8388 3.07989 14.8388C2.92356 14.917 3.05383 14.8649 3.10593 14.8388C3.26226 14.7346 3.41859 14.6304 3.60096 14.5262C3.93966 14.3178 4.30441 14.1614 4.64311 13.9791C5.37262 13.6404 6.12817 13.3277 6.83162 12.9109C7.22243 12.6764 7.56114 12.4158 7.76957 11.9729C7.95195 11.5821 8.00405 11.1913 7.978 10.7744C7.95194 10.566 7.92588 10.3576 7.87378 10.1752C7.79562 9.88861 7.6393 9.70624 7.37876 9.60202H7.3527C7.27454 9.57597 7.3006 9.57597 7.40481 9.62808C7.37876 9.60203 7.3006 9.57597 7.27454 9.54991C7.22243 9.52386 7.24849 9.49781 7.32665 9.57597C7.3006 9.54992 7.27455 9.52386 7.24849 9.49781C7.22244 9.47176 7.19639 9.4457 7.17034 9.41964C7.06612 9.31543 7.2485 9.54991 7.17034 9.41964C7.14428 9.36754 7.09217 9.31543 7.06612 9.23727C7.04006 9.21122 7.014 9.15911 7.014 9.13305C7.014 9.107 6.98796 9.08095 6.98796 9.05489C7.04006 9.15911 7.04006 9.15911 7.014 9.107C6.88374 8.7683 6.77952 8.4296 6.70136 8.06485C6.6753 7.96064 6.64926 7.88247 6.64926 7.77826C6.62321 7.62194 6.64926 7.93458 6.64926 7.77826C6.64926 7.72615 6.64926 7.7001 6.64926 7.64799C6.64926 7.59588 6.67531 7.46561 6.64926 7.43955C6.64926 7.46561 6.64925 7.51772 6.6232 7.54378C6.6232 7.51772 6.62321 7.49166 6.64926 7.46561C6.64926 7.43956 6.70136 7.33534 6.70136 7.30928C6.72741 7.36139 6.62319 7.43956 6.70136 7.33534C6.72741 7.30929 6.72741 7.28323 6.75347 7.23113L6.77953 7.20507C6.70137 7.30929 6.70136 7.28324 6.83162 7.12691C6.93584 6.97059 6.93585 6.78821 6.9098 6.60584C6.85769 6.39741 6.80558 6.21503 6.77953 6.00659C6.75348 5.90238 6.75347 5.79817 6.72742 5.69395C6.72742 5.6679 6.70136 5.61579 6.70136 5.58974C6.70136 5.77212 6.70136 5.61579 6.70136 5.56368C6.6753 5.35525 6.67531 5.17287 6.67531 4.96444C6.67531 4.86023 6.67531 4.75602 6.67531 4.67786C6.67531 4.62575 6.67531 4.57364 6.67531 4.52153C6.67531 4.49548 6.67531 4.49548 6.67531 4.46942C6.67531 4.39126 6.67531 4.39126 6.67531 4.49548C6.70136 4.41732 6.70137 4.33916 6.72742 4.26099C6.75347 4.15678 6.77952 4.02651 6.80558 3.92229C6.83163 3.84413 6.85768 3.76597 6.88374 3.68781C6.93584 3.53149 6.80557 3.81808 6.88374 3.66175C6.90979 3.60964 6.93584 3.55754 6.96189 3.53148C7.014 3.42727 7.06612 3.34911 7.11823 3.27095C7.14428 3.24489 7.14428 3.21884 7.17034 3.19279C7.19639 3.16673 7.32665 2.95831 7.22243 3.11463C7.32665 2.98436 7.45692 2.85409 7.58719 2.72382C7.6393 2.67171 7.71746 2.5675 7.79562 2.54144L7.74351 2.59355C7.76956 2.5675 7.79563 2.5675 7.82168 2.54144C7.87379 2.51539 7.89984 2.48934 7.95195 2.43723C8.10827 2.33301 8.26459 2.25485 8.42092 2.17669C8.44697 2.17669 8.57724 2.12458 8.47303 2.15064C8.36881 2.17669 8.49907 2.15063 8.52512 2.12458C8.62934 2.09853 8.73356 2.04642 8.83777 2.02037C8.91593 1.99431 8.99409 1.96826 9.09831 1.96826C9.15042 1.96826 9.30674 1.8901 9.35885 1.91615C9.33279 1.91615 9.30674 1.91615 9.28069 1.91615C9.30674 1.91615 9.3328 1.91615 9.38491 1.91615C9.43702 1.91615 9.48913 1.91615 9.51518 1.91615C9.61939 1.91615 9.69755 1.91615 9.80176 1.91615C9.85387 1.91615 9.90598 1.91615 9.93203 1.91615C10.0884 1.91615 9.80176 1.86404 9.93203 1.91615C9.98414 1.94221 10.0884 1.99431 9.93203 1.91615C10.0362 1.96826 9.90598 1.8901 9.87992 1.86404L9.90599 1.8901C9.95809 1.9422 9.93203 1.91615 9.87992 1.83799C9.95808 1.94221 10.0102 2.04642 10.1405 2.12458C10.3228 2.22879 10.5313 2.22879 10.7136 2.25485C10.8439 2.2809 10.6615 2.25485 10.6615 2.25485L10.7918 2.2809C10.87 2.30696 10.9742 2.30696 11.0523 2.33301C11.2347 2.35907 11.391 2.41118 11.5734 2.46328C11.5995 2.46328 11.834 2.5675 11.834 2.54144C11.834 2.54144 11.6776 2.46328 11.7818 2.51539C11.834 2.54144 11.86 2.54144 11.9121 2.5675C12.0684 2.64566 12.2248 2.74988 12.3811 2.85409L12.4071 2.88014C12.4593 2.93225 12.4593 2.9062 12.3811 2.85409C12.4072 2.85409 12.4592 2.93225 12.4853 2.9583C12.5635 3.01041 12.6156 3.08857 12.6937 3.16673C12.7458 3.21884 12.798 3.297 12.8501 3.34911C12.8761 3.37517 12.9803 3.50544 12.8761 3.37517C12.9282 3.42727 12.9543 3.47938 13.0064 3.55754C13.1106 3.71386 13.2148 3.89624 13.293 4.05256C13.3451 4.13072 13.3711 4.23494 13.4232 4.3131C13.4754 4.41731 13.3711 4.15677 13.4232 4.3131C13.4493 4.39126 13.4754 4.44337 13.5014 4.52153C13.5275 4.62575 13.5796 4.75601 13.6056 4.86023C13.6056 4.86023 13.6317 5.04261 13.6317 4.9384C13.6056 4.83418 13.6317 4.9905 13.6317 5.01655C13.6577 5.22498 13.6317 5.43341 13.6317 5.64184C13.6056 5.85027 13.6056 6.0587 13.5796 6.26713C13.5796 6.34529 13.5796 6.44951 13.5796 6.52767C13.5796 6.7361 13.6577 6.89242 13.7619 7.04875C13.788 7.0748 13.788 7.12691 13.8141 7.15297C13.8662 7.25718 13.788 7.12691 13.788 7.10086C13.788 7.17902 13.8401 7.25718 13.8662 7.33534C13.8662 7.38745 13.8922 7.4135 13.8922 7.46561C13.9183 7.62193 13.8922 7.30928 13.8922 7.43955C13.8922 7.51772 13.8922 7.59588 13.8922 7.70009C13.8922 7.77825 13.8662 7.88247 13.8662 7.96063C13.8662 7.93458 13.8662 7.90852 13.8662 7.85642C13.8662 7.88247 13.8662 7.90853 13.8401 7.93458C13.8401 7.96064 13.8401 7.98669 13.8141 8.01274C13.7619 8.19512 13.7098 8.37749 13.6577 8.53382C13.6056 8.66409 13.6838 8.53382 13.6577 8.50776C13.6577 8.50776 13.6056 8.61198 13.6056 8.63803C13.5796 8.71619 13.5275 8.79435 13.4753 8.87251C13.4493 8.92462 13.3972 9.00279 13.3711 9.05489C13.3451 9.08095 13.319 9.13305 13.293 9.15911C13.2669 9.18516 13.2669 9.21122 13.2409 9.23727C13.1888 9.28938 13.2148 9.28938 13.2669 9.18516C13.2409 9.21122 13.0845 9.34148 13.1888 9.26332C13.293 9.18516 13.1888 9.26332 13.1627 9.26332C13.1367 9.28937 13.1106 9.31543 13.0585 9.31543C13.0064 9.34148 12.9543 9.39359 12.8761 9.41964C12.8501 9.41964 12.8501 9.4457 12.824 9.4457C12.7719 9.47175 12.824 9.4457 12.9543 9.39359C12.9022 9.41964 12.8501 9.41965 12.798 9.47176C12.4332 9.68019 12.3811 10.1752 12.355 10.54C12.329 10.8005 12.329 11.0871 12.3811 11.3476C12.4072 11.5039 12.4071 11.6603 12.4593 11.7905C12.5374 11.999 12.6416 12.1814 12.7719 12.3377C12.9803 12.5982 13.293 12.8066 13.5796 12.963C13.8922 13.1453 14.2309 13.2756 14.5696 13.4059C14.6999 13.458 14.8301 13.5101 14.9604 13.5622C15.0386 13.5883 15.0907 13.6143 15.1688 13.6404C14.9344 13.5622 15.1688 13.6404 15.221 13.6664C15.7941 13.927 16.3413 14.2135 16.8623 14.5783C16.9405 14.6304 16.9926 14.6825 17.0708 14.7086C17.1229 14.7346 17.175 14.8388 17.0708 14.7086C17.0968 14.7346 17.1229 14.7346 17.1229 14.7607C17.2531 14.8649 17.3834 14.9952 17.5137 15.1254C17.5658 15.1775 17.5918 15.2296 17.644 15.2818C17.67 15.3078 17.6961 15.3599 17.7221 15.3599C17.5919 15.2557 17.67 15.2818 17.7221 15.3339C17.8003 15.4641 17.9045 15.5944 17.9566 15.7247C17.9827 15.8028 17.9827 15.8549 17.9566 15.6986C17.9566 15.7247 17.9827 15.7507 17.9827 15.8028C18.0087 15.881 18.0348 15.9331 18.0348 16.0113C18.0348 16.0634 18.0608 16.0894 18.0608 16.1415C18.0608 16.2197 18.0608 16.2979 18.0608 16.1155C18.0608 16.1936 18.0869 16.2718 18.0869 16.3239C18.1129 16.6626 18.1129 17.0013 18.1129 17.34C18.0348 17.9132 18.0087 18.5645 18.0087 19.2159C18.0087 19.5806 18.3214 19.9193 18.6861 19.8933C19.0509 19.8672 19.3635 19.5806 19.3635 19.2159C19.3635 18.304 19.4156 17.4182 19.3896 16.5063C19.3635 15.9852 19.2853 15.5162 19.0769 15.0473C18.8945 14.6304 18.6079 14.2657 18.2692 13.953C17.6179 13.3277 16.8363 12.9109 16.0547 12.52C15.6639 12.3377 15.2731 12.1813 14.8562 12.025C14.752 11.999 14.6738 11.9469 14.5696 11.9208C14.5696 11.9208 14.7259 11.999 14.6217 11.9469C14.5957 11.9469 14.5957 11.9208 14.5696 11.9208C14.5175 11.8948 14.4654 11.8687 14.4133 11.8427C14.2309 11.7645 14.0485 11.6603 13.8922 11.53C13.8662 11.504 13.788 11.4518 13.8922 11.53C13.9964 11.6082 13.8922 11.53 13.8662 11.5039C13.814 11.4779 13.788 11.4258 13.7619 11.3997L13.7359 11.3737C13.6577 11.2955 13.8141 11.504 13.7619 11.3997C13.7359 11.3737 13.7098 11.3216 13.6838 11.2955C13.6317 11.1913 13.7359 11.3737 13.7359 11.3997L13.7098 11.3476C13.7098 11.3216 13.6838 11.2695 13.6838 11.2434C13.6577 11.0871 13.6838 11.3737 13.6838 11.2695C13.6838 11.2174 13.6838 11.1652 13.6838 11.1131C13.6577 10.9047 13.6577 10.6963 13.6838 10.4879C13.6838 10.4357 13.6838 10.3836 13.6838 10.3315C13.7098 10.2013 13.6577 10.5139 13.6838 10.3576C13.6838 10.3315 13.7098 10.3055 13.7098 10.2794C13.7359 10.1492 13.6317 10.4357 13.6838 10.3576C13.5535 10.4618 13.4232 10.566 13.2669 10.6702C13.4232 10.6442 13.5796 10.54 13.7098 10.4357C13.9443 10.2794 14.1006 10.1231 14.257 9.91467C14.5175 9.57597 14.7259 9.18516 14.8823 8.7683C15.1949 7.93458 15.247 6.86637 14.6999 6.13686C14.7259 6.24108 14.752 6.37135 14.8041 6.47557C14.8041 5.95449 14.9083 5.45947 14.8823 4.9384C14.8301 4.3131 14.6217 3.73992 14.3351 3.19279C13.8141 2.2288 13.0064 1.49929 11.9903 1.10848C11.4692 0.926106 10.9221 0.847946 10.375 0.795838C10.5834 0.900053 10.7658 1.03032 10.9742 1.13454C10.7136 0.743731 10.3489 0.561352 9.90599 0.509245C9.56729 0.483191 9.22858 0.509244 8.88988 0.561351C8.29064 0.665567 7.66536 0.873997 7.17034 1.2127C5.99792 1.99431 5.32051 3.27095 5.24235 4.6518C5.19024 5.40736 5.34656 6.16292 5.52893 6.86638C5.58104 6.63189 5.65921 6.42346 5.71131 6.18897C5.39867 6.57978 5.2163 7.0227 5.24235 7.54378C5.2684 7.98669 5.37262 8.4296 5.50289 8.87251C5.73737 9.70623 6.15424 10.566 7.04007 10.8265C6.88374 10.6702 6.72741 10.5139 6.57109 10.3576C6.59714 10.4357 6.62321 10.54 6.64926 10.6181C6.64926 10.6702 6.67531 10.7223 6.67531 10.7744C6.67531 10.7744 6.64925 10.6181 6.67531 10.6963C6.67531 10.7223 6.67531 10.7484 6.67531 10.7744C6.67531 10.8787 6.67531 10.9568 6.67531 11.061C6.67531 11.1913 6.70136 10.9047 6.67531 11.061C6.67531 11.1131 6.64926 11.1653 6.64926 11.1913C6.64926 11.2174 6.59714 11.3737 6.6232 11.2695C6.6753 11.1653 6.59715 11.2955 6.59715 11.3216C6.59715 11.3476 6.57109 11.3476 6.57109 11.3737C6.51898 11.4779 6.59715 11.3476 6.59715 11.3216C6.5711 11.3476 6.51898 11.3997 6.49293 11.4258C6.36266 11.53 6.59715 11.3737 6.46688 11.4518C6.41477 11.4779 6.38872 11.504 6.33661 11.5561C6.2324 11.6342 6.12818 11.6863 5.99792 11.7645C5.19025 12.2335 4.30441 12.5461 3.47069 12.989C2.66303 13.4059 1.82929 13.953 1.36033 14.7346C0.917411 15.4641 0.813199 16.35 0.761091 17.1837C0.735037 17.5745 0.761091 17.9653 0.761091 18.3561C0.761091 18.5385 0.761101 18.7209 0.787155 18.9032C0.787155 19.1117 0.787142 19.3461 0.839249 19.5546C1.02163 20.1538 1.56877 20.4925 2.168 20.4925H3.41858H5.86765H8.9941H12.3029H15.2731H17.3834C17.7482 20.4925 18.1129 20.5186 18.4777 20.4665C19.0769 20.3362 19.4677 19.7891 19.4677 19.1898C19.4677 18.8251 19.1551 18.4864 18.7903 18.5124C18.3214 18.5385 18.0348 18.8251 18.0087 19.2159Z"/></svg>