<svg xmlns="http://www.w3.org/2000/svg" width="20" height="21" fill="none" viewBox="0 0 20 21"><path fill="#212121" d="M18.0092 19.2159C18.0092 19.3722 18.0353 19.0596 18.0092 19.2159C17.9831 19.3461 18.0874 19.0856 18.0092 19.2159C18.1134 19.0596 18.0613 19.1377 18.0352 19.1638C17.9831 19.1898 17.905 19.2419 18.0613 19.1377C17.9571 19.1898 18.1134 19.1117 18.1134 19.1117C18.0874 19.1117 18.0874 19.1117 18.0613 19.1377C17.9832 19.1638 18.0092 19.1638 18.1134 19.1377C18.0874 19.1377 18.0874 19.1377 18.0613 19.1377C18.0353 19.1377 18.0092 19.1377 18.0092 19.1377H17.6444H16.1594H11.1571H5.63364H2.2206C2.14244 19.1377 2.06427 19.1377 2.01216 19.1377C1.85584 19.1377 2.16848 19.1638 2.01216 19.1377C1.85584 19.1117 2.14243 19.1898 2.01216 19.1377C1.88189 19.0856 2.11637 19.2419 2.01216 19.1377C2.11637 19.268 2.06428 19.1898 2.03822 19.1638C2.01217 19.1117 2.01216 19.1377 2.06427 19.2419C2.06427 19.2159 2.03822 19.1898 2.03822 19.1638C2.03822 19.1898 2.03822 19.2419 2.03822 19.268C2.03822 19.2419 2.03822 19.2159 2.03822 19.1898C2.03822 19.1638 2.03822 19.1117 2.03822 19.0856C2.03822 19.0335 2.03822 18.9553 2.03822 18.9032C2.03822 18.7209 2.03822 18.5645 2.03822 18.3822C2.03822 18.0435 2.01217 17.7308 2.03822 17.3921C2.03822 17.2358 2.03822 17.0795 2.06427 16.8971C2.06427 16.8189 2.09033 16.7147 2.09033 16.6366C2.09033 16.5844 2.11638 16.5584 2.11638 16.5063C2.11638 16.5323 2.11638 16.5584 2.11638 16.6105C2.11638 16.5844 2.11638 16.5584 2.11638 16.5323C2.14243 16.376 2.16849 16.2197 2.2206 16.0634C2.24666 15.9852 2.2727 15.907 2.2727 15.8549C2.2727 15.8289 2.29875 15.7768 2.32481 15.7507C2.32481 15.7247 2.35087 15.6986 2.35087 15.6726C2.29876 15.7768 2.29875 15.8028 2.32481 15.7247C2.37692 15.5944 2.45507 15.4641 2.53323 15.3599C2.58534 15.3078 2.63746 15.2817 2.50719 15.386C2.53324 15.3599 2.55929 15.3339 2.58535 15.3078C2.66351 15.2296 2.74167 15.1515 2.79377 15.0733C2.87193 14.9952 2.92405 14.9431 3.00222 14.8909C3.02827 14.8649 3.05432 14.8388 3.08037 14.8388C2.92405 14.917 3.05431 14.8649 3.10642 14.8388C3.26274 14.7346 3.41907 14.6304 3.60145 14.5262C3.94015 14.3178 4.3049 14.1614 4.6436 13.9791C5.37311 13.6404 6.12866 13.3277 6.83211 12.9109C7.22292 12.6764 7.56163 12.4158 7.77006 11.9729C7.95244 11.5821 8.00454 11.1913 7.97849 10.7744C7.95243 10.566 7.92637 10.3576 7.87427 10.1752C7.7961 9.88861 7.63979 9.70624 7.37925 9.60202H7.35319C7.27503 9.57597 7.30108 9.57597 7.4053 9.62808C7.37925 9.60203 7.30108 9.57597 7.27503 9.54991C7.22292 9.52386 7.24898 9.49781 7.32714 9.57597C7.30109 9.54992 7.27504 9.52386 7.24898 9.49781C7.22293 9.47176 7.19688 9.4457 7.17083 9.41964C7.06661 9.31543 7.24899 9.54991 7.17083 9.41964C7.14477 9.36754 7.09266 9.31543 7.0666 9.23727C7.04055 9.21122 7.01449 9.15911 7.01449 9.13305C7.01449 9.107 6.98845 9.08095 6.98845 9.05489C7.04055 9.15911 7.04055 9.15911 7.01449 9.107C6.88422 8.7683 6.78 8.42961 6.70184 8.06485C6.67579 7.96064 6.64975 7.88247 6.64975 7.77826C6.62369 7.62194 6.64975 7.93458 6.64975 7.77826C6.64975 7.72615 6.64975 7.7001 6.64975 7.64799C6.64975 7.59588 6.6758 7.46561 6.64975 7.43955C6.64975 7.46561 6.64974 7.51772 6.62369 7.54378C6.62369 7.51772 6.62369 7.49166 6.64975 7.46561C6.64975 7.43956 6.70184 7.33534 6.70184 7.30929C6.7279 7.36139 6.62368 7.43956 6.70184 7.33534C6.7279 7.30929 6.7279 7.28323 6.75395 7.23113L6.78002 7.20507C6.70186 7.30929 6.70184 7.28324 6.83211 7.12691C6.93633 6.97059 6.93634 6.78821 6.91029 6.60584C6.85818 6.39741 6.80607 6.21502 6.78002 6.00659C6.75396 5.90238 6.75396 5.79817 6.72791 5.69395C6.72791 5.6679 6.70184 5.61579 6.70184 5.58974C6.70184 5.77212 6.70184 5.61579 6.70184 5.56368C6.67579 5.35525 6.6758 5.17287 6.6758 4.96444C6.6758 4.86023 6.6758 4.75602 6.6758 4.67786C6.6758 4.62575 6.6758 4.57364 6.6758 4.52153C6.6758 4.49548 6.6758 4.49548 6.6758 4.46942C6.6758 4.39126 6.6758 4.39126 6.6758 4.49548C6.70185 4.41732 6.70185 4.33916 6.72791 4.26099C6.75396 4.15678 6.78001 4.02651 6.80607 3.92229C6.83212 3.84413 6.85817 3.76597 6.88422 3.68781C6.93633 3.53149 6.80606 3.81808 6.88422 3.66175C6.91028 3.60964 6.93633 3.55754 6.96238 3.53148C7.01449 3.42727 7.06661 3.34911 7.11871 3.27095C7.14477 3.24489 7.14477 3.21884 7.17083 3.19279C7.19688 3.16673 7.32714 2.95831 7.22292 3.11463C7.32714 2.98436 7.45741 2.85409 7.58768 2.72382C7.63979 2.67171 7.71795 2.5675 7.79611 2.54144L7.744 2.59355C7.77005 2.5675 7.79612 2.5675 7.82217 2.54144C7.87428 2.51539 7.90033 2.48934 7.95244 2.43723C8.10876 2.33301 8.26508 2.25485 8.4214 2.17669C8.44746 2.17669 8.57773 2.12458 8.47352 2.15064C8.3693 2.17669 8.49956 2.15063 8.52561 2.12458C8.62983 2.09853 8.73404 2.04642 8.83826 2.02037C8.91642 1.99431 8.99458 1.96826 9.0988 1.96826C9.1509 1.96826 9.30723 1.8901 9.35933 1.91615C9.33328 1.91615 9.30723 1.91615 9.28118 1.91615C9.30723 1.91615 9.33329 1.91615 9.3854 1.91615C9.43751 1.91615 9.48961 1.91615 9.51567 1.91615C9.61988 1.91615 9.69804 1.91615 9.80225 1.91615C9.85436 1.91615 9.90647 1.91615 9.93252 1.91615C9.80225 1.86404 10.0888 1.91615 9.93252 1.91615C9.98463 1.94221 10.0888 1.99431 9.93252 1.91615C10.0367 1.96826 9.90646 1.8901 9.88041 1.86404L9.90647 1.8901C9.95858 1.9422 9.93252 1.91615 9.88041 1.83799C9.95857 1.94221 10.0107 2.04642 10.1409 2.12458C10.3233 2.22879 10.5318 2.22879 10.7141 2.25485C10.8444 2.2809 10.662 2.25485 10.662 2.25485L10.7923 2.2809C10.8705 2.30696 10.9747 2.30696 11.0528 2.33301C11.2352 2.35907 11.3915 2.41118 11.5739 2.46328C11.6 2.46328 11.8344 2.5675 11.8344 2.54144C11.8344 2.54144 11.6781 2.46328 11.7823 2.51539C11.8344 2.54144 11.8605 2.54144 11.9126 2.5675C12.0689 2.64566 12.2253 2.74988 12.3816 2.85409L12.4076 2.88014C12.4597 2.93225 12.4597 2.9062 12.3816 2.85409C12.4076 2.85409 12.4597 2.93225 12.4858 2.9583C12.564 3.01041 12.6161 3.08857 12.6942 3.16673C12.7463 3.21884 12.7984 3.297 12.8506 3.34911C12.8766 3.37517 12.9808 3.50544 12.8766 3.37517C12.9287 3.42727 12.9548 3.47938 13.0069 3.55754C13.1111 3.71386 13.2153 3.89624 13.2935 4.05256C13.3456 4.13072 13.3716 4.23494 13.4237 4.3131C13.3716 4.15677 13.4758 4.41731 13.4237 4.3131C13.4498 4.39126 13.4758 4.44337 13.5019 4.52153C13.528 4.62575 13.58 4.75601 13.6061 4.86023C13.6061 4.86023 13.6322 5.04261 13.6322 4.9384C13.6061 4.83418 13.6322 4.9905 13.6322 5.01655C13.6582 5.22498 13.6322 5.43341 13.6322 5.64184C13.6061 5.85027 13.6061 6.0587 13.5801 6.26713C13.5801 6.34529 13.5801 6.44951 13.5801 6.52767C13.5801 6.7361 13.6582 6.89242 13.7624 7.04875C13.7885 7.0748 13.7885 7.12691 13.8145 7.15297C13.8667 7.25718 13.7885 7.12691 13.7885 7.10086C13.7885 7.17902 13.8406 7.25718 13.8666 7.33534C13.8666 7.38745 13.8927 7.4135 13.8927 7.46561C13.9188 7.62193 13.8927 7.30929 13.8927 7.43955C13.8927 7.51772 13.8927 7.59588 13.8927 7.70009C13.8927 7.77825 13.8666 7.88247 13.8666 7.96063C13.8666 7.93458 13.8666 7.90852 13.8666 7.85642C13.8666 7.88247 13.8666 7.90853 13.8406 7.93458C13.8406 7.96064 13.8406 7.98669 13.8145 8.01274C13.7624 8.19512 13.7103 8.37749 13.6582 8.53382C13.6061 8.66409 13.6843 8.53382 13.6582 8.50776C13.6582 8.50776 13.6061 8.61198 13.6061 8.63803C13.58 8.71619 13.5279 8.79435 13.4758 8.87251C13.4498 8.92462 13.3977 9.00279 13.3716 9.05489C13.3456 9.08095 13.3195 9.13305 13.2935 9.15911C13.2674 9.18516 13.2674 9.21122 13.2414 9.23727C13.1893 9.28938 13.2153 9.28938 13.2674 9.18516C13.2414 9.21122 13.085 9.34148 13.1892 9.26332C13.2935 9.18516 13.1893 9.26332 13.1632 9.26332C13.1371 9.28937 13.1111 9.31543 13.059 9.31543C13.0069 9.34149 12.9548 9.39359 12.8766 9.41964C12.8505 9.41964 12.8505 9.4457 12.8245 9.4457C12.7724 9.47175 12.8245 9.4457 12.9548 9.39359C12.9026 9.41964 12.8505 9.41965 12.7984 9.47176C12.4337 9.68019 12.3816 10.1752 12.3555 10.54C12.3295 10.8005 12.3295 11.0871 12.3816 11.3476C12.4076 11.5039 12.4076 11.6603 12.4597 11.7905C12.5379 11.999 12.6421 12.1814 12.7724 12.3377C12.9808 12.5982 13.2935 12.8066 13.5801 12.963C13.8927 13.1453 14.2314 13.2756 14.5701 13.4059C14.7004 13.458 14.8306 13.5101 14.9609 13.5622C15.0391 13.5883 15.0912 13.6143 15.1693 13.6404C14.9348 13.5622 15.1693 13.6404 15.2214 13.6664C15.7946 13.927 16.3418 14.2135 16.8628 14.5783C16.941 14.6304 16.9931 14.6825 17.0713 14.7086C17.1234 14.7346 17.1755 14.8388 17.0713 14.7086C17.0973 14.7346 17.1234 14.7346 17.1234 14.7607C17.2536 14.8649 17.3839 14.9952 17.5142 15.1254C17.5663 15.1775 17.5923 15.2296 17.6444 15.2818C17.6705 15.3078 17.6966 15.3599 17.7226 15.3599C17.5923 15.2557 17.6705 15.2818 17.7226 15.3339C17.8008 15.4641 17.905 15.5944 17.9571 15.7247C17.9831 15.8028 17.9831 15.8549 17.9571 15.6986C17.9571 15.7247 17.9832 15.7507 17.9832 15.8028C18.0092 15.881 18.0352 15.9331 18.0352 16.0113C18.0352 16.0634 18.0613 16.0894 18.0613 16.1415C18.0613 16.2197 18.0613 16.2979 18.0613 16.1155C18.0613 16.1936 18.0874 16.2718 18.0874 16.3239C18.1134 16.6626 18.1134 17.0013 18.1134 17.34C18.0353 17.9132 18.0092 18.5645 18.0092 19.2159C18.0092 19.5806 18.3218 19.9193 18.6866 19.8933C19.0513 19.8672 19.364 19.5806 19.364 19.2159C19.364 18.304 19.4161 17.4182 19.39 16.5063C19.364 15.9852 19.2858 15.5162 19.0774 15.0473C18.895 14.6304 18.6084 14.2657 18.2697 13.953C17.6184 13.3277 16.8368 12.9109 16.0552 12.52C15.6644 12.3377 15.2736 12.1813 14.8567 12.025C14.7525 11.999 14.6743 11.9469 14.5701 11.9208C14.5701 11.9208 14.7264 11.999 14.6222 11.9469C14.5962 11.9469 14.5961 11.9208 14.5701 11.9208C14.518 11.8948 14.4659 11.8687 14.4138 11.8427C14.2314 11.7645 14.049 11.6603 13.8927 11.53C13.7885 11.4518 13.8666 11.504 13.8927 11.53C13.9969 11.6082 13.8927 11.53 13.8666 11.5039C13.8145 11.4779 13.7885 11.4258 13.7624 11.3997L13.7364 11.3737C13.6582 11.2955 13.8145 11.504 13.7624 11.3997C13.7364 11.3737 13.7103 11.3216 13.6843 11.2955C13.6322 11.1913 13.7364 11.3737 13.7364 11.3997L13.7103 11.3476C13.7103 11.3216 13.6843 11.2695 13.6843 11.2434C13.6582 11.0871 13.6843 11.3737 13.6843 11.2695C13.6843 11.2174 13.6843 11.1652 13.6843 11.1131C13.6582 10.9047 13.6582 10.6963 13.6843 10.4879C13.6843 10.4357 13.6843 10.3836 13.6843 10.3315C13.7103 10.2013 13.6582 10.5139 13.6843 10.3576C13.6843 10.3315 13.7103 10.3055 13.7103 10.2794C13.7364 10.1492 13.6322 10.4357 13.6843 10.3576C13.554 10.4618 13.4237 10.566 13.2674 10.6702C13.4237 10.6442 13.5801 10.54 13.7103 10.4357C13.9448 10.2794 14.1011 10.1231 14.2574 9.91467C14.518 9.57597 14.7264 9.18516 14.8827 8.7683C15.1954 7.93458 15.2475 6.86637 14.7004 6.13686C14.7264 6.24108 14.7525 6.37135 14.8046 6.47557C14.8046 5.95449 14.9088 5.45947 14.8827 4.9384C14.8306 4.3131 14.6222 3.73992 14.3356 3.19279C13.8145 2.2288 13.0069 1.49929 11.9908 1.10848C11.4697 0.926106 10.9226 0.847946 10.3754 0.795838C10.5839 0.900053 10.7662 1.03032 10.9747 1.13454C10.7141 0.743731 10.3494 0.561352 9.90647 0.509245C9.56777 0.483191 9.22907 0.509244 8.89037 0.561351C8.29113 0.665567 7.66585 0.873997 7.17083 1.2127C5.9984 1.99431 5.321 3.27095 5.24284 4.6518C5.19073 5.40736 5.34705 6.16292 5.52942 6.86637C5.58153 6.63189 5.65969 6.42346 5.7118 6.18897C5.39916 6.57978 5.21678 7.0227 5.24284 7.54378C5.26889 7.98669 5.37311 8.4296 5.50338 8.87251C5.73786 9.70623 6.15473 10.566 7.04056 10.8265C6.88423 10.6702 6.7279 10.5139 6.57157 10.3576C6.59763 10.4357 6.62369 10.54 6.64975 10.6181C6.64975 10.6702 6.6758 10.7223 6.6758 10.7744C6.6758 10.7744 6.64974 10.6181 6.6758 10.6963C6.6758 10.7223 6.6758 10.7484 6.6758 10.7744C6.6758 10.8787 6.6758 10.9568 6.6758 11.061C6.6758 11.1913 6.70185 10.9047 6.6758 11.061C6.6758 11.1131 6.64975 11.1653 6.64975 11.1913C6.64975 11.2174 6.59763 11.3737 6.62369 11.2695C6.67579 11.1653 6.59764 11.2955 6.59764 11.3216C6.59764 11.3476 6.57157 11.3476 6.57157 11.3737C6.51947 11.4779 6.59764 11.3476 6.59764 11.3216C6.57158 11.3476 6.51947 11.3997 6.49342 11.4258C6.36315 11.53 6.59764 11.3737 6.46737 11.4518C6.41526 11.4779 6.38921 11.504 6.3371 11.5561C6.23288 11.6342 6.12867 11.6863 5.9984 11.7645C5.19074 12.2335 4.3049 12.5461 3.47118 12.989C2.66351 13.4059 1.82978 13.953 1.36081 14.7346C0.917899 15.4641 0.813687 16.35 0.761579 17.1837C0.735526 17.5745 0.761579 17.9653 0.761579 18.3561C0.761579 18.5385 0.761589 18.7209 0.787643 18.9032C0.787643 19.1117 0.78763 19.3461 0.839738 19.5546C1.02211 20.1538 1.56925 20.4925 2.16849 20.4925H3.41907H5.86813H8.99459H12.3034H15.2736H17.3839C17.7487 20.4925 18.1134 20.5186 18.4782 20.4665C19.0774 20.3362 19.4682 19.7891 19.4682 19.1898C19.4682 18.8251 19.1556 18.4864 18.7908 18.5124C18.3218 18.5385 18.0353 18.8251 18.0092 19.2159Z"/></svg>