<svg width="22" height="23" viewBox="0 0 22 23" fill="none" xmlns="http://www.w3.org/2000/svg">
<path d="M13.0457 15.0919C11.5153 16.18 9.63198 16.6534 7.76899 16.4183C5.90599 16.1833 4.19929 15.2569 2.98712 13.8228C1.77496 12.3887 1.1458 10.5515 1.22433 8.67542C1.30287 6.7993 2.08336 5.02115 3.41114 3.69337C4.73892 2.36559 6.51707 1.58509 8.39319 1.50656C10.2693 1.42802 12.1065 2.05718 13.5406 3.26935C14.9747 4.48152 15.9011 6.18822 16.1361 8.05121C16.3712 9.91421 15.8977 11.7975 14.8097 13.3279L20.8222 19.3388C20.9448 19.453 21.0432 19.5908 21.1114 19.7439C21.1796 19.897 21.2163 20.0623 21.2192 20.2299C21.2222 20.3975 21.1914 20.5639 21.1286 20.7193C21.0658 20.8747 20.9724 21.0159 20.8539 21.1344C20.7354 21.253 20.5942 21.3464 20.4388 21.4092C20.2834 21.4719 20.1169 21.5028 19.9493 21.4998C19.7817 21.4968 19.6165 21.4602 19.4634 21.392C19.3103 21.3237 19.1725 21.2254 19.0582 21.1028L13.0457 15.0919ZM13.6997 8.98784C13.6997 7.66377 13.1737 6.39393 12.2374 5.45767C11.3012 4.52141 10.0313 3.99543 8.70728 3.99543C7.38321 3.99543 6.11337 4.52141 5.17711 5.45767C4.24085 6.39393 3.71487 7.66377 3.71487 8.98784C3.71487 10.3119 4.24085 11.5817 5.17711 12.518C6.11337 13.4543 7.38321 13.9803 8.70728 13.9803C10.0313 13.9803 11.3012 13.4543 12.2374 12.518C13.1737 11.5817 13.6997 10.3119 13.6997 8.98784Z" fill="black" stroke="#EFEFEF" stroke-width="1.5"/>
</svg>
