<svg width="20" height="21" viewBox="0 0 20 21" fill="none" xmlns="http://www.w3.org/2000/svg">
<mask id="path-1-inside-1_1_2872" fill="white">
<path d="M17.845 2.06863H15.2959V1.08824C15.2959 0.932226 15.234 0.782606 15.1236 0.67229C15.0133 0.561975 14.8637 0.5 14.7077 0.5C14.5517 0.5 14.4021 0.561975 14.2918 0.67229C14.1814 0.782606 14.1195 0.932226 14.1195 1.08824V2.06863H5.88417V1.08824C5.88417 0.932226 5.8222 0.782606 5.71188 0.67229C5.60157 0.561975 5.45195 0.5 5.29594 0.5C5.13993 0.5 4.99031 0.561975 4.87999 0.67229C4.76968 0.782606 4.7077 0.932226 4.7077 1.08824V2.06863H2.15868C1.79479 2.06904 1.44591 2.21378 1.1886 2.4711C0.931289 2.72841 0.786548 3.07728 0.786133 3.44118V19.1275C0.786548 19.4913 0.931289 19.8402 1.1886 20.0975C1.44591 20.3548 1.79479 20.4996 2.15868 20.5H17.845C18.2089 20.4996 18.5577 20.3548 18.815 20.0975C19.0723 19.8402 19.2171 19.4913 19.2175 19.1275V3.44118C19.2171 3.07728 19.0723 2.72841 18.815 2.4711C18.5577 2.21378 18.2089 2.06904 17.845 2.06863ZM2.15868 3.2451H4.7077V4.22549C4.7077 4.3815 4.76968 4.53112 4.87999 4.64144C4.99031 4.75175 5.13993 4.81373 5.29594 4.81373C5.45195 4.81373 5.60157 4.75175 5.71188 4.64144C5.8222 4.53112 5.88417 4.3815 5.88417 4.22549V3.2451H14.1195V4.22549C14.1195 4.3815 14.1814 4.53112 14.2918 4.64144C14.4021 4.75175 14.5517 4.81373 14.7077 4.81373C14.8637 4.81373 15.0133 4.75175 15.1236 4.64144C15.234 4.53112 15.2959 4.3815 15.2959 4.22549V3.2451H17.845C17.8969 3.24518 17.9468 3.26586 17.9835 3.30261C18.0203 3.33937 18.041 3.3892 18.041 3.44118V6.77451H1.9626V3.44118C1.96268 3.3892 1.98336 3.33937 2.02012 3.30261C2.05687 3.26586 2.1067 3.24518 2.15868 3.2451V3.2451ZM17.845 19.3235H2.15868C2.1067 19.3235 2.05687 19.3028 2.02012 19.266C1.98336 19.2293 1.96268 19.1794 1.9626 19.1275V7.95098H18.041V19.1275C18.041 19.1794 18.0203 19.2293 17.9835 19.266C17.9468 19.3028 17.8969 19.3235 17.845 19.3235V19.3235ZM9.80574 14.8134C9.80573 15.2399 9.67928 15.6568 9.44239 16.0114C9.20551 16.3661 8.8688 16.6425 8.47484 16.8058C8.08088 16.9691 7.64734 17.012 7.22903 16.929C6.81072 16.846 6.4264 16.6408 6.12466 16.3394C6.01576 16.2289 5.95496 16.0798 5.9555 15.9246C5.95604 15.7694 6.01787 15.6207 6.12754 15.5109C6.2372 15.4011 6.38581 15.3391 6.54099 15.3384C6.69617 15.3377 6.84535 15.3983 6.95603 15.5071C7.07009 15.621 7.21047 15.705 7.36476 15.7517C7.51904 15.7985 7.68247 15.8064 7.84056 15.7749C7.99865 15.7434 8.14654 15.6734 8.27111 15.5711C8.39569 15.4688 8.49311 15.3373 8.55476 15.1884C8.61641 15.0394 8.64038 14.8775 8.62454 14.7171C8.60871 14.5567 8.55356 14.4027 8.46398 14.2686C8.3744 14.1346 8.25315 14.0247 8.11097 13.9488C7.9688 13.8728 7.81008 13.833 7.64888 13.833C7.53808 13.833 7.42953 13.8017 7.33574 13.7427C7.24195 13.6838 7.16673 13.5995 7.11873 13.4996C7.07073 13.3998 7.05192 13.2884 7.06445 13.1783C7.07698 13.0682 7.12035 12.9639 7.18956 12.8774L7.99358 11.8723H6.47241C6.3164 11.8723 6.16678 11.8103 6.05646 11.7C5.94615 11.5896 5.88417 11.44 5.88417 11.284C5.88417 11.128 5.94615 10.9784 6.05646 10.8681C6.16678 10.7578 6.3164 10.6958 6.47241 10.6958H9.2175C9.3283 10.6958 9.43685 10.7271 9.53064 10.7861C9.62443 10.8451 9.69966 10.9293 9.74765 11.0292C9.79565 11.1291 9.81446 11.2405 9.80193 11.3506C9.7894 11.4606 9.74603 11.5649 9.67682 11.6515L8.6678 12.9127C9.01149 13.0972 9.29878 13.3713 9.49914 13.706C9.6995 14.0407 9.80546 14.4234 9.80574 14.8134V14.8134ZM13.7273 11.284V16.3821C13.7273 16.5381 13.6653 16.6877 13.555 16.798C13.4447 16.9083 13.2951 16.9703 13.1391 16.9703C12.9831 16.9703 12.8334 16.9083 12.7231 16.798C12.6128 16.6877 12.5508 16.5381 12.5508 16.3821V12.4605L11.9234 12.9311C11.7986 13.0247 11.6417 13.0649 11.4873 13.0428C11.3328 13.0207 11.1935 12.9382 11.0999 12.8134C11.0063 12.6886 10.9661 12.5317 10.9881 12.3773C11.0102 12.2229 11.0927 12.0835 11.2175 11.9899L12.7861 10.8134C12.8735 10.7479 12.9774 10.708 13.0862 10.6982C13.195 10.6884 13.3044 10.709 13.4021 10.7579C13.4999 10.8067 13.582 10.8818 13.6395 10.9748C13.6969 11.0677 13.7273 11.1748 13.7273 11.284Z"/>
</mask>
<path d="M17.845 2.06863H15.2959V1.08824C15.2959 0.932226 15.234 0.782606 15.1236 0.67229C15.0133 0.561975 14.8637 0.5 14.7077 0.5C14.5517 0.5 14.4021 0.561975 14.2918 0.67229C14.1814 0.782606 14.1195 0.932226 14.1195 1.08824V2.06863H5.88417V1.08824C5.88417 0.932226 5.8222 0.782606 5.71188 0.67229C5.60157 0.561975 5.45195 0.5 5.29594 0.5C5.13993 0.5 4.99031 0.561975 4.87999 0.67229C4.76968 0.782606 4.7077 0.932226 4.7077 1.08824V2.06863H2.15868C1.79479 2.06904 1.44591 2.21378 1.1886 2.4711C0.931289 2.72841 0.786548 3.07728 0.786133 3.44118V19.1275C0.786548 19.4913 0.931289 19.8402 1.1886 20.0975C1.44591 20.3548 1.79479 20.4996 2.15868 20.5H17.845C18.2089 20.4996 18.5577 20.3548 18.815 20.0975C19.0723 19.8402 19.2171 19.4913 19.2175 19.1275V3.44118C19.2171 3.07728 19.0723 2.72841 18.815 2.4711C18.5577 2.21378 18.2089 2.06904 17.845 2.06863ZM2.15868 3.2451H4.7077V4.22549C4.7077 4.3815 4.76968 4.53112 4.87999 4.64144C4.99031 4.75175 5.13993 4.81373 5.29594 4.81373C5.45195 4.81373 5.60157 4.75175 5.71188 4.64144C5.8222 4.53112 5.88417 4.3815 5.88417 4.22549V3.2451H14.1195V4.22549C14.1195 4.3815 14.1814 4.53112 14.2918 4.64144C14.4021 4.75175 14.5517 4.81373 14.7077 4.81373C14.8637 4.81373 15.0133 4.75175 15.1236 4.64144C15.234 4.53112 15.2959 4.3815 15.2959 4.22549V3.2451H17.845C17.8969 3.24518 17.9468 3.26586 17.9835 3.30261C18.0203 3.33937 18.041 3.3892 18.041 3.44118V6.77451H1.9626V3.44118C1.96268 3.3892 1.98336 3.33937 2.02012 3.30261C2.05687 3.26586 2.1067 3.24518 2.15868 3.2451V3.2451ZM17.845 19.3235H2.15868C2.1067 19.3235 2.05687 19.3028 2.02012 19.266C1.98336 19.2293 1.96268 19.1794 1.9626 19.1275V7.95098H18.041V19.1275C18.041 19.1794 18.0203 19.2293 17.9835 19.266C17.9468 19.3028 17.8969 19.3235 17.845 19.3235V19.3235ZM9.80574 14.8134C9.80573 15.2399 9.67928 15.6568 9.44239 16.0114C9.20551 16.3661 8.8688 16.6425 8.47484 16.8058C8.08088 16.9691 7.64734 17.012 7.22903 16.929C6.81072 16.846 6.4264 16.6408 6.12466 16.3394C6.01576 16.2289 5.95496 16.0798 5.9555 15.9246C5.95604 15.7694 6.01787 15.6207 6.12754 15.5109C6.2372 15.4011 6.38581 15.3391 6.54099 15.3384C6.69617 15.3377 6.84535 15.3983 6.95603 15.5071C7.07009 15.621 7.21047 15.705 7.36476 15.7517C7.51904 15.7985 7.68247 15.8064 7.84056 15.7749C7.99865 15.7434 8.14654 15.6734 8.27111 15.5711C8.39569 15.4688 8.49311 15.3373 8.55476 15.1884C8.61641 15.0394 8.64038 14.8775 8.62454 14.7171C8.60871 14.5567 8.55356 14.4027 8.46398 14.2686C8.3744 14.1346 8.25315 14.0247 8.11097 13.9488C7.9688 13.8728 7.81008 13.833 7.64888 13.833C7.53808 13.833 7.42953 13.8017 7.33574 13.7427C7.24195 13.6838 7.16673 13.5995 7.11873 13.4996C7.07073 13.3998 7.05192 13.2884 7.06445 13.1783C7.07698 13.0682 7.12035 12.9639 7.18956 12.8774L7.99358 11.8723H6.47241C6.3164 11.8723 6.16678 11.8103 6.05646 11.7C5.94615 11.5896 5.88417 11.44 5.88417 11.284C5.88417 11.128 5.94615 10.9784 6.05646 10.8681C6.16678 10.7578 6.3164 10.6958 6.47241 10.6958H9.2175C9.3283 10.6958 9.43685 10.7271 9.53064 10.7861C9.62443 10.8451 9.69966 10.9293 9.74765 11.0292C9.79565 11.1291 9.81446 11.2405 9.80193 11.3506C9.7894 11.4606 9.74603 11.5649 9.67682 11.6515L8.6678 12.9127C9.01149 13.0972 9.29878 13.3713 9.49914 13.706C9.6995 14.0407 9.80546 14.4234 9.80574 14.8134V14.8134ZM13.7273 11.284V16.3821C13.7273 16.5381 13.6653 16.6877 13.555 16.798C13.4447 16.9083 13.2951 16.9703 13.1391 16.9703C12.9831 16.9703 12.8334 16.9083 12.7231 16.798C12.6128 16.6877 12.5508 16.5381 12.5508 16.3821V12.4605L11.9234 12.9311C11.7986 13.0247 11.6417 13.0649 11.4873 13.0428C11.3328 13.0207 11.1935 12.9382 11.0999 12.8134C11.0063 12.6886 10.9661 12.5317 10.9881 12.3773C11.0102 12.2229 11.0927 12.0835 11.2175 11.9899L12.7861 10.8134C12.8735 10.7479 12.9774 10.708 13.0862 10.6982C13.195 10.6884 13.3044 10.709 13.4021 10.7579C13.4999 10.8067 13.582 10.8818 13.6395 10.9748C13.6969 11.0677 13.7273 11.1748 13.7273 11.284Z" fill="black" stroke="white" stroke-width="0.4" mask="url(#path-1-inside-1_1_2872)"/>
</svg>
