<svg width="21" height="21" viewBox="0 0 21 21" fill="none" xmlns="http://www.w3.org/2000/svg">
<path d="M12.293 6.61643C11.7231 6.20548 11.0072 6 10.1453 6C9.48988 6 8.93644 6.14448 8.487 6.43395C7.77358 6.88689 7.39463 7.6563 7.34863 8.74117H9.00194C9.00194 8.42471 9.09442 8.12125 9.2784 7.82728C9.46288 7.53432 9.77584 7.38783 10.2173 7.38783C10.6662 7.38783 10.9757 7.50682 11.1442 7.74429C11.3137 7.98276 11.3981 8.24623 11.3981 8.5352C11.3981 8.78717 11.2722 9.01764 11.1197 9.22662C11.0288 9.35635 10.9172 9.4702 10.7892 9.56358C10.7892 9.56358 9.89283 10.1385 9.49938 10.6005C9.2714 10.8679 9.25091 11.2694 9.23041 11.8443C9.22941 11.8853 9.24491 11.9703 9.38789 11.9703H10.6732C10.8012 11.9703 10.8277 11.8758 10.8292 11.8333C10.8382 11.6243 10.8612 11.5168 10.8997 11.3959C10.9717 11.1674 11.1687 10.9684 11.3892 10.7964L11.8441 10.483C12.255 10.1625 12.5825 9.90003 12.7275 9.69406C12.9745 9.3561 13.1484 8.93915 13.1484 8.44421C13.1479 7.6368 12.863 7.02838 12.293 6.61643ZM10.1188 12.9612C9.54937 12.9437 9.07943 13.3381 9.06143 13.9561C9.04393 14.573 9.49038 14.9814 10.0603 14.9979C10.6547 15.0154 11.1122 14.6345 11.1307 14.0165C11.1477 13.3986 10.7137 12.9787 10.1188 12.9612Z" fill="black"/>
<path d="M10.2481 0.499023C15.7711 0.499023 20.2481 4.97602 20.2481 10.499C20.2481 16.022 15.7711 20.499 10.2481 20.499C8.65205 20.5012 7.07888 20.1199 5.66106 19.387L1.83506 20.454C1.6216 20.5136 1.39614 20.5153 1.18178 20.4591C0.967421 20.4028 0.771871 20.2906 0.615165 20.1339C0.458459 19.9772 0.346232 19.7817 0.289982 19.5673C0.233733 19.3529 0.235484 19.1275 0.295055 18.914L1.36306 15.091C0.628407 13.672 0.245978 12.097 0.248055 10.499C0.248055 4.97602 4.72506 0.499023 10.2481 0.499023ZM10.2481 1.99902C7.99372 1.99902 5.83171 2.89456 4.23765 4.48862C2.64359 6.08267 1.74806 8.24468 1.74806 10.499C1.74806 11.969 2.12106 13.382 2.82106 14.636L2.97106 14.906L1.85906 18.89L5.84606 17.778L6.11606 17.928C7.25044 18.5587 8.51419 18.9213 9.8104 18.9878C11.1066 19.0544 12.4009 18.8233 13.5939 18.3121C14.7869 17.801 15.8471 17.0234 16.693 16.039C17.5389 15.0547 18.1482 13.8896 18.4741 12.6333C18.8 11.377 18.8339 10.0627 18.5731 8.79121C18.3123 7.51976 17.7638 6.32491 16.9697 5.29829C16.1756 4.27167 15.1569 3.44054 13.9917 2.86865C12.8266 2.29675 11.546 1.99927 10.2481 1.99902Z" fill="black"/>
</svg>
