<svg width="20" height="20" viewBox="0 0 20 20" fill="none" xmlns="http://www.w3.org/2000/svg">
<g clip-path="url(#clip0_101_153)">
<path d="M14.1663 12.7042V18.4309C14.1664 18.5046 14.1468 18.577 14.1097 18.6407C14.0726 18.7044 14.0192 18.7571 13.9551 18.7935C13.891 18.8298 13.8183 18.8485 13.7446 18.8476C13.6709 18.8467 13.5987 18.8263 13.5355 18.7884L9.99967 16.6667L6.46384 18.7884C6.40054 18.8263 6.32831 18.8468 6.25452 18.8476C6.18073 18.8485 6.10804 18.8297 6.04388 18.7933C5.97971 18.7568 5.92638 18.704 5.88933 18.6402C5.85228 18.5764 5.83284 18.5039 5.83301 18.4301V12.7051C4.7548 11.8418 3.97133 10.665 3.59089 9.33718C3.21045 8.00939 3.2518 6.59622 3.70925 5.29295C4.1667 3.98969 5.01764 2.86068 6.14449 2.06196C7.27134 1.26323 8.61846 0.834229 9.99967 0.834229C11.3809 0.834229 12.728 1.26323 13.8549 2.06196C14.9817 2.86068 15.8327 3.98969 16.2901 5.29295C16.7475 6.59622 16.7889 8.00939 16.4085 9.33718C16.028 10.665 15.2446 11.8418 14.1663 12.7051V12.7042ZM7.49967 13.6817V16.2234L9.99967 14.7234L12.4997 16.2234V13.6817C11.7054 14.003 10.8565 14.1677 9.99967 14.1667C9.14287 14.1677 8.29397 14.003 7.49967 13.6817ZM9.99967 12.5001C11.3258 12.5001 12.5975 11.9733 13.5352 11.0356C14.4729 10.0979 14.9997 8.82614 14.9997 7.50006C14.9997 6.17398 14.4729 4.90221 13.5352 3.96453C12.5975 3.02684 11.3258 2.50006 9.99967 2.50006C8.67359 2.50006 7.40182 3.02684 6.46414 3.96453C5.52646 4.90221 4.99967 6.17398 4.99967 7.50006C4.99967 8.82614 5.52646 10.0979 6.46414 11.0356C7.40182 11.9733 8.67359 12.5001 9.99967 12.5001Z" fill="#58BA6E"/>
</g>
<defs>
<clipPath id="clip0_101_153">
<rect width="20" height="20" fill="white"/>
</clipPath>
</defs>
</svg>
